<svg width="719" height="247" viewBox="0 0 719 247" fill="none" xmlns="http://www.w3.org/2000/svg">
<g clip-path="url(#clip0_204_5)">
<path d="M340.84 60.33H374.85V246.38H340.84V60.33ZM253.68 152.18H266.39C271.84 152.18 276.49 150.28 280.3 146.47C284.15 142.66 286.1 138.06 286.1 132.61V113.92C286.1 108.47 284.15 103.82 280.3 100.01C276.49 96.2 271.84 94.3 266.39 94.3H253.68V152.18ZM320.11 132.61C320.11 144.61 315.68 156.3 306.87 167.64C298.32 178.8 288.18 186.2 276.53 189.83C286.89 188.1 296.19 184.34 304.39 178.54C305.1 178.01 305.81 177.43 306.47 176.86C310.1 182.88 312.4 189.44 313.38 196.44L320.11 246.4H286.36L279.5 198.66C278.57 194.41 276.4 190.95 273.03 188.25C269.53 185.5 265.59 184.13 261.07 184.13H253.67V246.4H219.66V60.33H255.49C262.04 64.14 268.16 70.07 273.78 78.09C279.58 86.24 283.08 93.99 284.28 101.34C283.35 85.4 277.68 71.76 267.32 60.33C281.93 60.6 294.38 65.91 304.65 76.27C314.97 86.72 320.11 99.3 320.11 113.91V132.6V132.61ZM164.93 60.33H198.94V246.38H164.93V60.33ZM106.69 108.87C106.69 104.88 105.32 101.43 102.57 98.6C99.69 95.77 96.28 94.3 92.29 94.3H82.81L77.89 63.03V129.2H92.28C96.27 129.2 99.68 127.78 102.56 124.95C105.31 122.16 106.68 118.75 106.68 114.68V108.88L106.69 108.87ZM43.89 92L77.9 60.33H96.06C108.28 60.33 118.69 64.63 127.33 73.31C136.01 81.95 140.31 92.35 140.31 104.58V114.94C140.31 126.63 136.55 136.91 129.02 145.81C137.88 154.14 142.84 164.23 143.95 176.19C141.56 184.07 137.48 190.8 131.77 196.43C125.53 202.67 118.84 205.91 111.66 206.17H106.83C109.09 203.2 110.2 199.88 110.2 196.16V179.68C110.2 175.21 108.61 171.31 105.42 167.99C102.14 164.8 98.25 163.21 93.73 163.21H77.92V212.64L98.43 212.77C111.23 212.77 120.75 211 126.95 207.46C135.54 202.63 141.3 193.51 144.22 180.09V198.25C144.22 211.58 139.53 222.92 130.09 232.26C120.66 241.69 109.32 246.39 96.08 246.39H43.91V92H43.89Z" fill="url(#paint0_linear_204_5)"/>
<path d="M718.2 60.33V94.3H688.75V246.38H654.87V99.26L676.44 94.3H625.42V60.33H718.2ZM604.69 212.37V246.38H549.95C539.9 246.38 531.39 242.84 524.4 235.75C517.27 228.75 513.73 220.2 513.73 210.2V180.08C515.72 189.16 519.22 196.47 524.27 202C531.27 209.62 540.79 213.07 552.79 212.36H604.7L604.69 212.37ZM604.69 60.33V94.3H547.74V131.06H588.48V165.03H547.74V205.51H545.79C538.53 205.24 531.84 202.06 525.68 195.9C520.06 190.28 516.07 183.46 513.72 175.39V96.51C513.72 86.5 517.26 77.95 524.39 70.96C531.39 63.87 539.89 60.33 549.94 60.33H604.68H604.69ZM455.48 108.87C455.48 104.88 454.11 101.43 451.36 98.59C448.48 95.76 445.07 94.29 441.08 94.29H431.6L426.68 63.02V129.19H441.07C445.06 129.19 448.47 127.77 451.35 124.94C454.1 122.15 455.47 118.74 455.47 114.67V108.87H455.48ZM392.68 92L426.69 60.33H444.85C457.07 60.33 467.48 64.63 476.12 73.31C484.8 81.95 489.1 92.35 489.1 104.58V114.94C489.1 126.63 485.34 136.91 477.81 145.81C486.67 154.14 491.63 164.23 492.73 176.19C490.34 184.07 486.26 190.8 480.55 196.43C474.31 202.67 467.62 205.91 460.44 206.17H455.61C457.87 203.2 458.98 199.88 458.98 196.16V179.68C458.98 175.21 457.39 171.31 454.2 167.99C450.92 164.8 447.03 163.21 442.51 163.21H426.7V212.64L447.21 212.77C460.01 212.77 469.53 211 475.73 207.46C484.32 202.63 490.08 193.51 493 180.09V198.25C493 211.58 488.31 222.92 478.87 232.26C469.44 241.69 458.1 246.39 444.86 246.39H392.69V92H392.68Z" fill="#FFC401"/>
<mask id="mask0_204_5" style="mask-type:luminance" maskUnits="userSpaceOnUse" x="0" y="3" width="70" height="82">
<path d="M47.89 34.75C51.32 35.02 54.49 37.17 55.87 40.58C57.82 45.39 55.5 50.86 50.69 52.8C45.89 54.75 40.41 52.43 38.47 47.62C37.5 45.24 37.59 42.69 38.51 40.49L16.67 31.4L23.36 53.25C27.72 52.34 32.24 54.64 33.97 58.91C35.92 63.71 33.6 69.19 28.79 71.13C24.36 72.92 19.36 71.09 17.08 67.01L0 71.23L26.16 84.72L70 51.68L50.33 3.13L47.89 34.75Z" fill="white"/>
</mask>
<g mask="url(#mask0_204_5)">
<path d="M69.99 3.13H0V84.71H69.99V3.13Z" fill="url(#paint1_linear_204_5)"/>
</g>
<mask id="mask1_204_5" style="mask-type:luminance" maskUnits="userSpaceOnUse" x="50" y="0" width="84" height="52">
<path d="M69.99 51.67L50.33 3.13L74.09 24.13C71.81 26.71 71.03 30.45 72.42 33.87C74.37 38.67 79.84 40.99 84.64 39.05C89.44 37.1 91.76 31.63 89.82 26.83C88.85 24.45 87.02 22.68 84.83 21.73L94.18 0L104.58 20.35C100.82 22.73 99.17 27.52 100.9 31.8C102.85 36.6 108.32 38.92 113.12 36.97C117.55 35.17 119.86 30.38 118.66 25.87L133.86 17L124.46 44.89L112.22 46.41C103.91 46 94.31 47.14 84.28 49.89L69.99 51.67Z" fill="white"/>
</mask>
<g mask="url(#mask1_204_5)">
<path d="M133.86 0H50.33V51.67H133.86V0Z" fill="url(#paint2_linear_204_5)"/>
</g>
<path d="M118.66 25.87C119.86 30.38 117.55 35.17 113.12 36.97C108.32 38.92 102.84 36.6 100.9 31.8C99.17 27.53 100.82 22.73 104.58 20.35L94.18 0L84.83 21.73C87.02 22.67 88.85 24.44 89.82 26.83C91.77 31.63 89.45 37.11 84.64 39.05C79.84 41 74.36 38.68 72.42 33.87C71.04 30.46 71.81 26.72 74.09 24.14L50.33 3.13L69.99 51.67L53.46 10.87L69.53 24.75C67.96 27.97 67.79 31.74 69.19 35.17C71.85 41.74 79.37 44.92 85.94 42.26C92.51 39.6 95.69 32.08 93.03 25.51C92.2 23.46 90.88 21.69 89.2 20.34L94.45 8.15L100.23 19.45C96.85 23.03 95.76 28.34 97.68 33.08C100.34 39.65 107.86 42.83 114.43 40.17C119.56 38.09 122.69 33.01 123.48 28.89L128.65 25.87L127.82 34.92L124.47 44.87L133.87 16.98L118.67 25.85L118.66 25.87Z" fill="#FFCB00"/>
<path d="M26.32 89.77L41.98 66.79L70.41 52.7L100.63 43.03L127.87 48.63L130.77 51.1C118.27 43.92 94.9 44.72 71.08 54.36C61.17 58.37 52.39 63.43 45.22 68.97C51.98 64 59.98 59.51 68.88 55.91C92.84 46.2 116.54 45.64 129.85 53.12C128.6 56.21 126.7 62.23 128.62 66.95L79.25 74.5L38.54 103.44C35.85 96.79 25.96 93.54 25.96 93.54L26.32 89.74V89.77Z" fill="#FFC401"/>
<path d="M68.56 48.14C67.75 48.45 66.93 48.76 66.12 49.1C46 57.25 30.15 69.52 22.29 82.72L26.16 84.72L34.11 78.73C39.92 72.56 47.6 66.69 56.68 61.72L70 51.68L68.57 48.15L68.56 48.14Z" fill="#FFFF00"/>
<mask id="mask2_204_5" style="mask-type:luminance" maskUnits="userSpaceOnUse" x="22" y="40" width="110" height="54">
<path d="M71.08 54.37C94.89 44.73 118.27 43.92 130.77 51.11C132.44 47.6 129.16 44.42 127.6 43.76C113.09 37.94 90.86 39.07 68.54 48.12C46.22 57.16 29.47 71.81 23.1 86.09C22.44 87.65 22.3 92.21 25.94 93.57C29.92 79.71 47.26 64.02 71.07 54.37" fill="white"/>
</mask>
<g mask="url(#mask2_204_5)">
<path d="M132.44 37.93H22.31V93.56H132.44V37.93Z" fill="url(#paint3_linear_204_5)"/>
</g>
<mask id="mask3_204_5" style="mask-type:luminance" maskUnits="userSpaceOnUse" x="38" y="64" width="93" height="46">
<path d="M121.35 64.89C111.91 64.28 96.13 67.68 79.24 74.52C54.03 84.73 35.9 98.74 38.76 105.79C39.44 107.46 41.23 108.59 43.91 109.21V106.73C43.96 105.72 44.54 104.53 45.6 103.2C50.32 97.3 64.44 88.76 82.11 81.6C103.95 72.75 123.37 69.2 127.14 73.17L127.17 73.14C127.17 73.14 128.09 74.1 128.77 74.81C130.25 72.51 130.75 70.46 130.07 68.79C129.13 66.46 126.01 65.17 121.35 64.87" fill="white"/>
</mask>
<g mask="url(#mask3_204_5)">
<path d="M130.75 64.27H35.91V109.21H130.75V64.27Z" fill="url(#paint4_linear_204_5)"/>
</g>
<path d="M128.78 74.82C129.48 73.74 129.95 72.71 130.19 71.75C130.15 71.61 130.12 71.47 130.06 71.34C127.46 64.91 105.84 67.61 81.77 77.35C63.35 84.81 48.83 94.25 44.2 101.15C43.56 102.1 43.13 102.99 42.88 103.84C42.83 104 42.79 104.16 42.76 104.32C42.76 104.35 42.76 104.38 42.74 104.41C42.7 104.63 42.67 104.85 42.66 105.06C42.66 105.16 42.65 105.25 42.66 105.34C42.66 105.42 42.66 105.5 42.68 105.58C42.68 105.7 42.7 105.81 42.72 105.93C42.73 105.99 42.74 106.05 42.76 106.12C42.8 106.29 42.85 106.47 42.92 106.63C43.13 107.15 43.47 107.61 43.92 108.01V106.72C43.97 105.71 44.55 104.52 45.61 103.19C50.33 97.29 64.45 88.75 82.12 81.6C103.96 72.75 123.38 69.2 127.15 73.17L127.18 73.14C127.18 73.14 128.1 74.1 128.78 74.81" fill="#F6A800"/>
<path d="M9.82 72.38L13.26 71.53L19.68 69.95C18.64 69.18 17.75 68.19 17.09 67.01L0 71.23L4.69 73.65L9.82 72.39V72.38ZM16.66 31.4L23.35 53.25L25.86 49.59L22.14 37.45L34.39 42.55L38.5 40.5L16.66 31.41V31.4ZM47.89 34.75L50.33 3.13L53.46 10.87L51.58 32.03L47.88 34.76L47.89 34.75Z" fill="#FFD800"/>
<path d="M79.25 74.52C54.04 84.73 35.92 98.73 38.77 105.79C39.45 107.46 41.24 108.59 43.92 109.21V109C42.88 108.36 42.14 107.56 41.74 106.58C38.73 99.15 57.04 84.72 82.63 74.36C96.6 68.7 109.84 65.42 119.49 64.82C109.91 64.72 95.06 68.11 79.25 74.52Z" fill="#FFCB00"/>
<path d="M26.71 89.94C26.95 88.76 27.24 87.44 27.6 86.09C29.25 79.9 36.22 65.35 59.83 52.06C41.9 61.1 28.62 73.73 23.11 86.08C22.46 87.64 22.31 92.2 25.95 93.56C25.95 93.56 35.84 96.81 38.53 103.46C36.77 95.12 28.59 90.83 26.7 89.95" fill="#FFCB00"/>
</g>
<defs>
<linearGradient id="paint0_linear_204_5" x1="209.37" y1="60.33" x2="209.37" y2="246.4" gradientUnits="userSpaceOnUse">
<stop stop-color="#B9B9B9"/>
<stop offset="1" stop-color="white"/>
</linearGradient>
<linearGradient id="paint1_linear_204_5" x1="76.8" y1="97.32" x2="25.84" y2="32.23" gradientUnits="userSpaceOnUse">
<stop stop-color="#B73814"/>
<stop offset="1" stop-color="#FFC401"/>
</linearGradient>
<linearGradient id="paint2_linear_204_5" x1="87.06" y1="61.86" x2="104.26" y2="-61.08" gradientUnits="userSpaceOnUse">
<stop stop-color="#B9571E"/>
<stop offset="0.54" stop-color="#F8B803"/>
<stop offset="1" stop-color="#FFC200"/>
</linearGradient>
<linearGradient id="paint3_linear_204_5" x1="87.73" y1="91.32" x2="72.44" y2="53.58" gradientUnits="userSpaceOnUse">
<stop stop-color="#B04925"/>
<stop offset="0.99" stop-color="#FBB315"/>
<stop offset="1" stop-color="#FBB315"/>
</linearGradient>
<linearGradient id="paint4_linear_204_5" x1="85.54" y1="92.2" x2="70.25" y2="54.46" gradientUnits="userSpaceOnUse">
<stop stop-color="#B04925"/>
<stop offset="0.99" stop-color="#FBB315"/>
<stop offset="1" stop-color="#FBB315"/>
</linearGradient>
<clipPath id="clip0_204_5">
<rect width="718.2" height="246.39" fill="white"/>
</clipPath>
</defs>
</svg>
